<svg xmlns="http://www.w3.org/2000/svg" viewBox="0 0 32 32" fill="#f7931a">
  <path d="M15.99 0C7.16 0 0 7.16 0 15.99s7.16 15.99 15.99 15.99 15.99-7.16 15.99-15.99S24.82 0 15.99 0zm2.54 23.32v2.47h-2.06v-2.4c-.53 0-1.08-.01-1.63-.03v2.43h-2.06v-2.49c-.44-.01-.87-.03-1.29-.03l-2.68-.01v-2.13s1.52.03 1.5.01c.58 0 .77-.35.82-.65v-6.51h.26s-.17-.01-.26-.01v-4.64c-.08-.42-.35-.9-1.14-.9.02-.02-1.5 0-1.5 0V6.5l2.84.01v-2.4h2.06v2.35c.55-.01 1.1-.02 1.63-.02V4.11h2.06v2.4c1.85.18 3.15.74 3.32 2.36.13 1.3-.49 1.96-1.32 2.33 1.26.35 2.1 1.06 1.85 2.77-.31 2.14-1.82 2.84-4.4 3.04v2.31zm-.35-9.97c0-1.42-2.38-1.25-3.14-1.25v2.5c.76 0 3.14.16 3.14-1.25zm.53 4.39c0-1.56-2.82-1.38-3.67-1.38v2.77c.85 0 3.67.18 3.67-1.39z"/>
</svg>